<?xml version="1.0" encoding="UTF-8"?>
<svg width="256px" height="154px" viewBox="0 0 256 154" version="1.1" xmlns="http://www.w3.org/2000/svg" xmlns:xlink="http://www.w3.org/1999/xlink" preserveAspectRatio="xMidYMid">
    <defs>
        <linearGradient x1="-2.77777778%" y1="32%" x2="100%" y2="67.5555556%" id="linearGradient-1">
            <stop stop-color="#2298BD" offset="0%"></stop>
            <stop stop-color="#0ED7B5" offset="100%"></stop>
        </linearGradient>
    </defs>
    <g>
        <path d="M128,0 C93.867,0 72.533,17.067 64,51.2 C76.8,34.133 91.733,27.733 108.8,32 C118.537,34.434 125.497,41.501 133.201,49.332 C145.751,62.082 160.275,76.834 192,76.8 C226.133,76.8 247.467,59.733 256,25.6 C243.2,42.667 228.267,49.067 211.2,44.8 C201.463,42.366 194.503,35.299 186.799,27.468 C174.249,14.718 159.725,0 128,0 Z M64,76.8 C29.867,76.8 8.533,93.867 0,128 C12.8,110.933 27.733,104.533 44.8,108.8 C54.537,111.234 61.497,118.301 69.201,126.132 C81.751,138.882 96.275,153.634 128,153.6 C162.133,153.6 183.467,136.533 192,102.4 C179.2,119.467 164.267,125.867 147.2,121.6 C137.463,119.166 130.503,112.099 122.799,104.268 C110.249,91.518 95.725,76.8 64,76.8 Z" fill="url(#linearGradient-1)"></path>
    </g>
</svg> 